<?xml version="1.0" encoding="UTF-8"?>
<svg version="1.1" viewBox="0 0 1600 1600" width="500" height="500" xmlns="http://www.w3.org/2000/svg">
<path transform="translate(1084,317)" d="m0 0h26l16 4 9 4 9 6 9 8 9 12 8 15 4 18v16l-4 16-8 16-10 14-11 12-11 8 1 5 15 20 14 20 13 23 14 27 9 20 10 27 7 23 6 27 3 23 1 14v59l-2 25-9 44-6 22-10 28-14 30-13 23-12 19-13 18-13 16-12 14-11 12-12 12-11 9-9 8-16 12-19 12-15 9-23 12-21 10-21 8-30 10-23 6-34 6-21 2-33 1-35-2-36-6-33-9-27-9-26-11-23-12-21-13-22-15-14-11-13-11-12-11-16-16-9-11-9-10-13-17-10-14-11-17-12-22-15-30-11-28-9-30-6-26-4-29-2-27v-31l4-34 5-24 10-37 7-21 10-24 11-23 13-23 8-12 11-16 8-10 12-14 9-11 14-15 9-9 8-7 11-9 17-13 19-13 20-12 24-12 29-12 31-10 30-7 33-6 28-2h37l26 2 30 5 30 8 29 10 25 10 14 7 4 1 6-7h2l1-3 8-7 12-12 8-7 13-9 10-5z" fill="#3DB3C3"/>
<path transform="translate(1084,317)" d="m0 0h26l16 4 9 4 9 6 9 8 9 12 8 15 4 18v16l-4 16-8 16-10 14-11 12-11 8 1 5 15 20 14 20 13 23 14 27 9 20 10 27 7 23 6 27 3 23 1 14v59l-2 25-9 44-6 22-10 28-14 30-13 23-12 19-13 18-13 16-12 14-11 12-12 12-11 9-9 8-16 12-19 12-15 9-23 12-21 10-21 8-30 10-23 6-34 6-21 2-33 1-35-2-36-6-33-9-27-9-26-11-23-12-21-13-22-15-14-11-13-11-12-11-16-16-9-11-9-10-13-17-10-14-11-17-12-22-15-30-11-28-9-30-6-26-4-29-2-27v-31l4-34 5-24 10-37 7-21 10-24 11-23 13-23 8-12 11-16 8-10 12-14 9-11 14-15 9-9 8-7 11-9 17-13 19-13 20-12 24-12 29-12 31-10 30-7 33-6 28-2h37l26 2 30 5 30 8 29 10 25 10 14 7 4 1 6-7h2l1-3 8-7 12-12 8-7 13-9 10-5zm-266 54-32 3-25 4-29 7-30 10-29 13-19 10-23 14-11 8-11 9-13 11-7 7-4 3v2l-4 2-9 9v2h-2l-10 13-7 7-7 9-6 8-10 15-12 21-12 23-7 19-11 34-5 24-4 25-3 19v38l2 21 4 24 10 38 4 12 3 7 6 18 14 27 3 4 8-1 11-3 15-2 19 1 20 4 20 7 18 8 18 11 19 14 14 10 27 18 21 10 25 9 30 8 27 4h30l29-4 23-6 40-14 21-11 30-20 19-12 14-9 17-10 28-10 18-4 20-2h10l19 3h4l8-16 6-13 8-18 3-8 1-7 4-15 7-37 2-10 1-2 2-25v-38l-5-35-5-26-6-23-11-28-9-20-9-15-13-22-13-16-10-15-4 1-8 9-8 7-48 48-11 9-26 26-8 7-15 14-7 8-9 7-13 12-8 7-7 7-8 7-13 12-6 8-10 8-11 8-13 11-10 6-13 4-5 1h-22l-17-3-14-6-12-9-9-9-11-7-11-10-8-7-13-12-17-16-7-8-6-7-10-8-14-12-14-11-11-11-6-10-6-14-3-13v-18l3-15 7-18 9-11 14-11 15-7 12-3h19l16 3 12 5 10 6 13 11 10 9 7 8 38 38 6 5 5-1 14-14 5-6 8-7 16-16 8-7 11-9 17-17 7-8 36-36 9-7 12-11 5-5 4-5-1-4-8-5-44-15-27-7-35-5-9-1z" fill="#13384E"/>
<path transform="translate(818,371)" d="m0 0h31l38 5 19 4 23 7 35 12 8 5 1 4-7 9-8 7-13 11-8 7-36 36-7 8-14 14-8 6-17 16-13 13-6 5-7 8-9 9-5-1-13-12-36-36-6-7-8-7-13-10-16-8-12-3-7-1h-19l-12 3-16 8-14 11-8 10-7 18-3 15v18l4 15 7 16 7 9 9 9 10 8 11 9 14 12 5 4 7 8 11 12 10 9 7 7 8 7 14 12 9 7 6 4 9 9 14 9 10 4 17 3h22l15-4 11-6 14-11 10-8 8-6 5-4 7-9 17-16 8-7 7-7 8-7 10-9 9-7 12-13 8-7 16-15 18-18 11-9 64-64h3l11 16 12 15 14 24 11 19 10 24 7 18 6 23 6 31 3 25v5l-28-8-17-3-10-1h-20l-25 3-36 8-12 4-18 8-21 10-22 14-13 9-15 9-18 10-24 10-28 9-21 4h-36l-21-4-24-7-27-11-14-7-22-14-16-12-17-11-23-12-18-8-24-7-23-5-15-2h-42l-19 3-28 8-3 2 4-31 6-31 6-20 11-32 12-25 14-24 8-12 8-11 11-13 8-9 5-7h2l2-4 9-9h2l2-4 8-7 11-10 14-11 11-8 15-9 21-12 21-10 25-10 30-9 28-6 33-4z" fill="#45C9C5"/>
<path transform="translate(556,884)" d="m0 0 19 1 20 4 20 7 18 8 18 11 19 14 14 10 27 18 21 10 25 9 30 8 27 4h30l29-4 23-6 40-14 21-11 30-20 19-12 14-9 17-10 28-10 18-4 20-2h10l19 3 3 2-4 1-1 5-13 20-7 11-9 12-6 10-2 3h-2l-2 4-2 3h-2l-2 4-7 6-4 5-8 7-14 12-10 8-3 1v2l-13 10-18 11-25 13-24 11-29 11-36 9-29 5-21 2h-26l-30-3-24-4-24-6-33-11-26-12-26-13-18-12-28-22-12-11-13-12-14-14-21-27-12-17-9-13-4-9 19-5z" fill="#3399C0"/>
<path transform="translate(818,371)" d="m0 0h31l38 5 19 4 23 7 35 12 8 5 1 4-7 9-8 7-13 11-8 7-36 36-7 8-14 14-8 6-17 16-13 13-6 5-7 8-9 9-5-1-13-12-36-36-6-7-8-7-13-10-16-8-12-3-7-1h-19l-12 3-16 8-14 11-8 10-7 18-3 15v18l4 15 7 16 3 4 2 5 5 5v2l4 2 4 4v6l-2 2-14 6-2 2-6-1-1-3h-8l-1-3-9-2-12-2-8 2-6 4-3 1h-13l-17-2-18-1h-32l-1-9 6-21 6-15 5-7 8-16 5-7 4-8 8-11 12-17 11-11 9-12 18-18 8-7 9-8 11-9 16-11 5-5 27-15 19-9 25-10 30-9 28-6 33-4z" fill="#82F6E3"/>
<path transform="translate(527,686)" d="m0 0h42l25 4 28 7 19 7 28 14 24 16 18 13 25 15 35 14 26 7 16 3h36l25-5 26-9 26-11 23-13 12-8 13-9 20-12 25-12 18-7 35-8 21-3 9-1h20l23 3 25 7 8 3v38l-2 25-1 2-6-1-12-6-19-5-19-3h-13l-19 2-21 5-37 13-15 8-21 13-18 12-16 11-21 11-20 8-22 7-32 7-14 2h-41l-28-5-25-7-26-9-20-10-20-14-18-13-18-12-15-9-21-9-21-7-15-3-8-1h-32l-24 3-17 4-17 7-5-1-2-11-1-13v-38l4-5 28-8z" fill="#FBFCFD"/>
<path transform="translate(1089,357)" d="m0 0h15l9 2 13 8 4 5 5 12v19l-4 12-11 12-9 7-4 1-2 4-3 1-2 4h-2l-1 4-34 34-6 5-5 5-5 4-4 4-9 7-11 12-28 28-8 7-8 8-11 9-20 20-8 7-14 14-8 7-13 12-8 7-8 8-8 7-13 12-8 7-14 11-12 6-10 2h-10l-9-2-10-5-11-9-8-8-8-7-13-13-16-14-8-6-12-11-8-7-10-9-5-6-8-7-10-9-9-8-4-5-4-8-1-4v-11l4-13 3-6 8-9 8-4 12-2h7l7 2 13 7 12 11 33 33 4 5 11 8 12 11 10 8 9 4h13l8-4 10-9 12-11 13-11 8-7 23-23 7-8 16-16h2l1-3 11-9 16-16 7-8 7-7 7-8 9-10 14-14 8-7 25-25 7-8 18-18 10-8 11-6z" fill="#CCF6FD"/>
<path transform="translate(536,819)" d="m0 0h33l33 6 30 10 25 13 17 11 15 10 26 17 18 10 20 8 17 7 23 6 18 3 12 1h23l19-3 24-6 24-9 15-6 16-8 17-10 17-12 18-11 15-9 23-12 32-10 21-4 15-2h10l20 3 18 5 11 5-1 4-5 14-5 11-12 26-2 3-9-1-14-2h-10l-20 2-18 4-28 10-27 16-15 10-19 12-21 14-19 10-40 14-23 6-29 4h-30l-27-4-30-8-30-11-21-11-20-14-12-8-19-14-15-10-16-8-20-8-17-5-12-2-19-1-20 3-10 3-5-1-14-26-5-12-5-16-1-5 8-4 15-5z" fill="#FBFCFD"/>
<path transform="translate(1099,515)" d="m0 0 2 4 2-2 4 1 7 6 7 10 9 15 14 24 11 26 3 11 3 12-1 10-3 12-2 4h-3v-2l-14 4-4 5h-2l-2 4-8 9-3 5-11 4-3 2-15 3-9 1-11 2-24 8-10 4-9 3-11 5-15 5-10 6-4 2-4 4-15 9-6 3h-2v2l-7 3h-2v2l-9 4-10 4-9 3v2l-9 1-10 1-1-3-6-1 2-3-5-5h-2l1-9 9-11 12-14 7-8 5-4 5-6 6-8 7-8 2-1 5-5 6-7 4-6 6-8 2 2 6-8h2v-2l8-5 1-2h2l2-4 11-14 13-13h2l2-4 7-6 1-2h2l2-4 4-5 9-9 13-10 7-6 4-4-3-1 6-5 4-5 6-4 1-2h2v-3l4-1v-2l5-5 3-4h2z" fill="#45C9C5"/>
<path transform="translate(1094,501)" d="m0 0h3l11 16 2 4-4-3-4 1-2 2-1-4-2 4-2 2-6 7h-2v2l-4 1v3l-2 2-5 4-9 9 3-1 3 1-7 4h-2l-2 4-3 1-1 3-14 10-3 3h-2l-2 5-3 1-2 4-4 5h-2l-1 3-8 7-16 16-8 10-5 7h-2l-2 4-5 3h-2v2l-9 9h-2l-8 10-2 4-11 11-5 4-8 11-7 8-6 5-9 11-10 11-6 8-2 9 3-1 1 4 4 2-1 2 5 2 1 2 9-1 7-1 2 1v-2l9-4 10-4 7-3h2v-2l9-3v-2l14-7 2-2 8-5h2l1-3 13-7 12-5 13-5 9-4 5-1 16-6 14-4 5-2 11-2 8-1 12-2 5-3 9-3 4-6 9-11h2l2-4 5-3 9-2h2v2h3l2-9 2-7 1-10-3-12-1-5 3 4 5 15 7 30 5 31 1 16-28-8-17-3-10-1h-20l-25 3-36 8-12 4-18 8-21 10-22 14-13 9-15 9-18 10-24 10-28 9-21 4h-36l-21-4-24-7-27-11-14-7-22-14-16-12-17-11-3-3 5 1 10 7h3l5 5 5 2 3 3 3 1 1 2 5 2 5 3 5 2v2l4 1 6 3 11 5 10 2 5-1 1-7v-12l2-4 2-1v-6h-2l-7-15v-5l-2-4h-2l-3-6-3-8 1-4 10 9 11 7 10 10 14 9 10 4 17 3h22l15-4 11-6 14-11 10-8 8-6 5-4 7-9 17-16 8-7 7-7 8-7 10-9 9-7 12-13 8-7 16-15 18-18 11-9 58-58z" fill="#3CB3C3"/>
<path transform="translate(556,884)" d="m0 0 19 1 20 4 20 7 18 8 18 11 19 14 14 10 27 18 21 10 6 2v3l11 7 5 1v2l6 2 10 2 9 5 5 5-1 5-2 6-4 3-12 4-7 4-10 4-11 7-9 7-16 5-7 3-1 3h-3l-1 2-5-3-10-4-17-9-12-5-9-4-12-8-28-22-12-11-13-12-14-14-21-27-12-17-9-13-4-9 19-5z" fill="#4AB3CF"/>
<path transform="translate(1089,357)" d="m0 0h15l9 2 13 8 4 5 4 11v11l-3 3-8-4-33 11-21 11-20 13-9 6-17 17-6 5-2 3h-2v2l-8 7-5 6h-2v2l-8 7-67 67-8 7-10 9-8 7-15 13-11 10-13 9-16 8-18-2-18-4-19-8-11-7-16-8-25-16-14-10-10-5-20-6-15-4h-9l-4 1v-12l4-9 8-9 8-4 12-2h7l7 2 13 7 12 11 33 33 4 5 11 8 12 11 10 8 9 4h13l8-4 10-9 12-11 13-11 8-7 23-23 7-8 16-16h2l1-3 11-9 16-16 7-8 7-7 7-8 9-10 14-14 8-7 25-25 7-8 18-18 10-8 11-6z" fill="#FBFCFD"/>
<path transform="translate(542,750)" d="m0 0h32l19 3 20 6 24 10 14 8 12 8 23 16v4l2 1v3l4 1v2l4 2 2 4 4 2 5 4 5 2-1 2-8-1 3 2v2l-2 1 8 8 1 13 1 3 4 2-2 3 4 1h-2v2l3-1 2 2 3 2-5 1-2 4-5 2-7-1-6-3-9-4v-2l-6-2-14-8-2-1v-2l-5-1v-2h-6l-14-8-11-5-7-1-25-8-33-6h-33l-20 4-17 6-4 1-5-15-9-36-2-16 7-1 15-6 17-4z" fill="#45C9C5"/>
<path transform="translate(686,466)" d="m0 0h11l14 4 5 2v1l-12-1h-19l-12 3-16 8-14 11-8 10-7 18-3 15v18l4 15 7 16 3 4 2 5 5 5v2l4 2 4 4v6l-2 2-14 6-2 2-6-1-1-3h-8l-1-3-9-2-12-2-8 2-6 4-3 1h-13l-17-2-18-1h-32l-1-9 6-21 6-15 5-7 8-16 5-7 4-8 8-11 12-17 11-11 7-10 2 2 5-1 8-4h10l11-2 22 1 11-6 3-2h4v2h12l12-5 2-3z" fill="#83F7E3"/>
<path transform="translate(801,375)" d="m0 0h19l7 1 4 8h-3l1 5-3 3-35 14-12 3-8 3-19 8-17 12-7 8-10 4-3 1-2 5-20 6-5 2 1 5 5-1 23 4 7 2 5 3 1 5h-7l-7-2v-2l-5-1-14-4h-11l-11 1-2 3-12 5-12-1v-2l-7 3-11 6-22-1-14 2h-7l-10 5-4-1 1-4 18-18 8-7 9-8 11-9 16-11 5-5 27-15 19-9 25-10 30-9 19-3 21-2z" fill="#98FDF0"/>
<path transform="translate(1121,392)" d="m0 0 12 4-1 9-4 5h-4l-2-4-4-1h-4v2l-12 5-5 3-3 3-11 7-10 8-9 2-10 6h-2l1 3-5 4-5 3-5 4-8 6-2 5-3 5-10 9-4 6-9 5-3 5-16 12-3 3h-3v2l-8 6-5 9-8 6-6 3-5 5-6 3-1 6-4 4-6 4-2 4-6 2v2h-2l-2 4-10 10-5 4-3 5-9 5-5 3-8 6-5 3-3 3-10 4-10 3-4-1 1-1-25 1-8-2-19-2-7-3-13-6-11-7-5-6h-2l-2-4-9-7-8-3-15-9-6-1 1-5-5-2v2h-8l-11-4-2-4-1-3-3-3-3-2 8 1 20 6 12 6 15 11 19 12 14 8 10 5 10 6 18 7 21 4 12 1 16-8 10-7 14-12 11-10 8-7 10-9 8-7 12-11 65-65h2v-2h2l2-4 9-9h2v-2l8-7 5-6 8-7 4-2 2-4 9-6 22-14 19-10 21-7z" fill="#DEF9FE"/>
<path transform="translate(920,667)" d="m0 0 1 2h3l1 7-3 7-1 6-5 9-9 10-8 10-1 2h-2l-2 5h-2l-2 4-10 11-5 5-9 7-11 7-8 6-10 6-12 3-10 1-6-4-9-10-3-12-1-3-4-2-4-5-1-4-9-7-3-5v-3h-2l-1-4-1-2-6-3-6-4-4-4-3-2v-2h-2l-2-5-5-6 4 2 8 7 9 6 9 9 14 9 10 4 17 3h22l15-4 11-6 14-11 10-8 8-6 5-4 7-9z" fill="#34A5BE"/>
<path transform="translate(1106,750)" d="m0 0h13l19 3 19 5 17 8-3 22-7 34-3 10-9-3-16-5-15-3-9-1-31 1 1-4 9-6h2l2-6 5-5 1-3 16-8 2-2-1-2 5-13 2-1-5-5-4-6-16-4-15 2h-11v-2l3-2 17-3z" fill="#339AC0"/>
<path transform="translate(918,835)" d="m0 0h2l-1 5-1 1 3 1-1 4-3 9 2 3-9 4h8l1 3h-2l-1 2-9 6-8 4-13 6-11 3h-7l-3 1h-11l4-1v-2h-11l2-3h-3l-1 2h-6l2-1v-2l-8 1-17-5-9-1-8-4 1-2-8-3-1-3h4l-10-7-3-2 1-1-11-3-11-5-5-3v-2l9 2 12 4 14 5 6 1v2l13 1 4 1h23l21-3 12-2 3-1 17-4 15-4 8-4z" fill="#4AB4CF"/>
<path transform="translate(964,871)" d="m0 0h2v2h2l-1 3-13 8-16 9-14 7-24 9-18 6-27 6-9 1h-23l-19-2-24-5-15-5-10-5v-2l11 3 5 3 10 1v2l13 1 3 2 16 2 4 1h12l6-2 20-4 7-2 7-1 6-2 14-3 12-5h2l-1-3 4-4 5-4 23-4 9-3h4v-2l9-4h2l1-3z" fill="#34A5BE"/>
<path transform="translate(1143,763)" d="m0 0h6v2h7l10 6 1 6-2 8h-2l-1 3h-2v2h-7l-6 3-6 2-10 6-6 5-6 4-15 4h-3v3l2 2-1 1-21 1 1-4 9-6h2l2-6 5-5 1-3 16-8 8-5 9-3 6-4 9-2 1-6-7-5z" fill="#34A6BE"/>
<path transform="translate(889,697)" d="m0 0 2 1-2 4 1 6-6 12-8 9-8 6-13 6-4 1h-9l-9-2-2-4v-3l-7-1h-20l-12-3-5-4v-3l10 3 17 3h22l15-4 11-6 14-11 10-8z" fill="#3399BF"/>
<path transform="translate(542,750)" d="m0 0h32l19 3 20 6v2l-11-1-14-2-2-1v2l-5-2-3-1v2l-5 1-3 1h-18l-14-1-7 1-5 1h-7l-17 3-5 1-2-1-1 2h-9l1-3 15-6 17-4z" fill="#3EB4C4"/>
<path transform="translate(952,818)" d="m0 0 3 1-9 5-13 7-15 5-9 5-10 4-17 4-11 2-7 2-17 3-13 1h-21l-16-3v-2l-9-1-11-4-20-7v-1l9 1 25 6 18 3h41l24-4 26-6 29-10z" fill="#359CC1"/>
<path transform="translate(662,535)" d="m0 0h1l1 8 6-1-1 6 3 10 1 3 4 2 12 11 9 11 9 10 7 8 6 8 1 4-8-6v-2l-4-2-3-3-5-2-5-6-8-7-10-9-9-8-4-5-4-8-1-4v-11z" fill="#D5F5FC"/>
<path transform="translate(1162,621)" d="m0 0 2 3 7 30 5 31 1 16-28-8-10-2-1-3 1-2h19l7-2 3-10v-19l-2-10-2-7z" fill="#34A6BE"/>
<path transform="translate(636,429)" d="m0 0 2 1-17 12-13 11-8 7-16 15-10 10-9 12-10 10-14 20-8 12-5 9-8 14-10 18-6 11-1-3 13-27 14-24 8-12 8-11 11-13 8-9 5-7h2l2-4 9-9h2l2-4 8-7 11-10 14-11 11-8z" fill="#3FB1C6"/>
<path transform="translate(1097,755)" d="m0 0 9 1 10 3 3 3 2 4 5 5-3 2-7 2-1 1-5 2-1 2h-5l2-5-3 1v-3l-4 1 3-11-3-1-11-2-14 2v-2l16-4z" fill="#4AB4CF"/>
<path transform="translate(556,884)" d="m0 0 19 1 20 4 20 7 2 1v2l-9-1-21-7-10-1-7-2h-11l-16 4-9 3h-3l-2 5 7 11v3l-9-12-5-11 19-5z" fill="#359CC1"/>
<path transform="translate(900,961)" d="m0 0 4 2-5 4-8 4-14 4-19 3h-21l-5-1 1-2 30-5 24-6z" fill="#DFFAFF"/>
<path transform="translate(769,860)" d="m0 0 11 1 7 2-4 2 12 6-1 3-5-1v2h3l-1 3-8-2 2 5-4-1-2-2-8 1v-4l-10-1 1-4-2-2 9 1-4-2v-1h5l-1-1-2-1v-2l-3-1z" fill="#4AB4CF"/>
<path transform="translate(952,818)" d="m0 0 3 1-9 5-13 7-15 5-9 5-10 4-17 4-10 2-2-1h-7l1-3 36-8 29-10z" fill="#369DC1"/>
<path transform="translate(755,903)" d="m0 0 11 3 5 3 10 1v2l13 1 3 2 16 2 8 2 25 1v2h-23l-19-2-24-5-15-5-10-5z" fill="#3AA5C3"/>
<path transform="translate(691,469)" d="m0 0 14 1 11 2v1l-12-1h-19l-12 3-16 8-14 11-8 10-7 18-3 15v18l2 9-1 4-2-5-1-6v-23l3-14 5-14 8-11 9-9 13-8 8-4 14-4z" fill="#3EAFC5"/>
<path transform="translate(1162,621)" d="m0 0 2 3 7 30 5 31 1 16-17-5 1-4h12v-11l-4-24-2-4-2-12-3-16z" fill="#359BC1"/>
<path transform="translate(1094,501)" d="m0 0h3v2l-3 1-6 11h-2l-1 3-6 4h-2v4h-2v2l-9 7h-2l-1 3-9 6-10 10-2-1 46-46z" fill="#339BBF"/>
<path transform="translate(565,751)" d="m0 0h17l19 4 12 4v2l-11-1-14-2-2-1v2l-5-2v-2h-8l-8-3z" fill="#3EB5C3"/>
<path transform="translate(636,429)" d="m0 0 2 1-17 12-13 11-8 7-16 15-15 15-3 2 2-4 2-3h2l2-4 9-9h2l2-4 8-7 11-10 14-11 11-8z" fill="#3EAEC5"/>
<path transform="translate(566,885)" d="m0 0h9l20 4 20 7 2 1v2l-9-1-21-7-10-1-7-2v-2z" fill="#38A4C2"/>
<path transform="translate(898,768)" d="m0 0 2 1 5-1v3l-19 7-12 4h-9l3-1v-2l5-1v-2l13-4h5l6-3z" fill="#35A8BE"/>
<path transform="translate(756,768)" d="m0 0 14 4 4 2 10 2 1 1 7 1 9 4v1h-9l-24-7-12-5z" fill="#37A6C0"/>
<path transform="translate(686,466)" d="m0 0h11l14 4v1l-20-1-16 3-8 3-3-1 6-4 3-1 2-3z" fill="#84F8E4"/>
<path transform="translate(802,782)" d="m0 0h10l2 1 35 2v2h-36l-11-2z" fill="#35A4BF"/>
<path transform="translate(1162,621)" d="m0 0 2 3 7 30 4 24v5l-2-2-4-24-2-4-2-12-3-16z" fill="#339BBF"/>
<path transform="translate(938,650)" d="m0 0 2 1-3 4h2l4-2-1 5-4 4-5 2h-4l-4-1z" fill="#34A4BE"/>
<path transform="translate(961,399)" d="m0 0 5 1 6 4 1 4-7 9-8 7-13 11-2-1 12-11 8-7 4-5v-8l-6-3z" fill="#41B7C5"/>
<path transform="translate(757,839)" d="m0 0 9 1 25 6 5 1-3 1v2l-17-3-19-7z" fill="#37A1C2"/>
<path transform="translate(952,818)" d="m0 0 3 1-9 5-13 7-15 5-5 2-1-3 19-7z" fill="#38A3C2"/>
<path transform="translate(755,903)" d="m0 0 11 3 5 3 10 1v2l6 1v2h-7l-15-5-10-5z" fill="#37A7C1"/>
<path transform="translate(703,878)" d="m0 0 5 2 18 10 8 5 16 6-4 1-13-5-20-11-10-7z" fill="#38A2C3"/>
<path transform="translate(669,718)" d="m0 0 5 1 10 7h3l5 5 5 2 3 3 3 1-1 4-30-20z" fill="#3FB4C5"/>
<path transform="translate(1087,511)" d="m0 0h2l-1 4h-2l-1 3-6 4h-2v4h-2v2l-9 7h-2l-1 3-3 1 1-3h2l2-4 3-3h2l1-3 5-5 3-1 1-3 4-3h2z" fill="#34A6BE"/>
<path transform="translate(1094,751)" d="m0 0h6l-4 1-1 3-9 2-1 1h-11v-2l3-2z" fill="#3AA9C3"/>
<path transform="translate(565,751)" d="m0 0h17l8 2 2 2h-19l-8-3z" fill="#36A7BF"/>
<path transform="translate(592,464)" d="m0 0 2 1-25 25-3 2 2-4 2-3h2l2-4 9-9h2l2-4z" fill="#3AA8C3"/>
<path transform="translate(616 1e3)" d="m0 0 5 2 16 12v2l5 2 10 7-2 1-15-10-14-11z" fill="#3399C0"/>
<path transform="translate(909,836)" d="m0 0h4l-1 4-13 5h-6l3-2 4-4z" fill="#359DC1"/>
<path transform="translate(518,563)" d="m0 0v3l-5 9-6 10-3 6-1-3 11-23z" fill="#3FB3C5"/>
<path transform="translate(632,834)" d="m0 0 9 3 14 8 5 3v2l-5-2-23-12z" fill="#40B4C5"/>
<path transform="translate(936,891)" d="m0 0 3 1-6 4-15 6-5 1 1-3 14-5 5-3z" fill="#379FC2"/>
<path transform="translate(826,784)" d="m0 0 23 1v2h-36v-1h13z" fill="#37AAC0"/>
<path transform="translate(566,885)" d="m0 0h9l12 2v3h-10l-7-2v-2z" fill="#3AA1C5"/>
<path transform="translate(717,749)" d="m0 0 11 6 6 4 12 5v1l-8-1-16-9-5-4z" fill="#38A4C2"/>
<path transform="translate(526,544)" d="m0 0 1 2-2 7-6 10-4 2 2-5z" fill="#3FB0C6"/>
<path transform="translate(536,530)" d="m0 0h2l-2 4-5 9-4 6-1-3 3-7 5-8z" fill="#42B6C7"/>
<path transform="translate(924,759)" d="m0 0 4 1-6 4-10 4h-5l1-2 13-5z" fill="#38ACC0"/>
<path transform="translate(1027,567)" d="m0 0 2 1-9 9-8 7-4 4-2-1 13-13z" fill="#35A1C0"/>
<path transform="translate(874,845)" d="m0 0 4 1v2l-8 2h-7l1-3z" fill="#38A4C2"/>
<path transform="translate(797,916)" d="m0 0h12l8 2v1l-13 1-1-3h-6z" fill="#35A6BF"/>
<path transform="translate(894,908)" d="m0 0m-4 1h4v2l-12 4h-5l1-2z" fill="#379DC2"/>
<path transform="translate(779,844)" d="m0 0 17 3-3 1v2l-12-2v-2h-2z" fill="#3AA6C3"/>
<path transform="translate(775,910)" d="m0 0h6v2l6 1v2h-7l-7-3z" fill="#36A4C0"/>
<path transform="translate(665,564)" d="m0 0 4 2 13 13-1 2-7-7-5-4z" fill="#B8ECF6"/>
<path transform="translate(533,751)" d="m0 0h8l1 2-2 1h-11l-4-2z" fill="#4AB4CF"/>
<path transform="translate(588,888)" d="m0 0 7 1 4 5-10-2-2-1z" fill="#369CC2"/>
<path transform="translate(756,768)" d="m0 0 12 4v3l-12-4z" fill="#39AAC1"/>
<path transform="translate(1077,754)" d="m0 0h6v2h2v2h-11v-2z" fill="#359FC1"/>
<path transform="translate(926,830)" d="m0 0 2 1-5 3-10 4-1-3z" fill="#39A2C4"/>
<path transform="translate(669,718)" d="m0 0 5 1 10 7-3 1-12-8z" fill="#3EB1C5"/>
<path transform="translate(663,555)" d="m0 0 4 2 2 5-1 2h-3z" fill="#F8FCFE"/>
<path transform="translate(784,848)" d="m0 0 7 1 2 1v-2h4v2l-6 2-7-3z" fill="#339ABF"/>
<path transform="translate(1120,755)" d="m0 0h10v2l6 1-4 1-7-1-5-2z" fill="#34A6BE"/>
<path transform="translate(902,768)" d="m0 0h3v3l-8 3-1-3 4-2z" fill="#37ABBF"/>
<path transform="translate(509,580)" d="m0 0 1 2-4 11-3 1 1-5z" fill="#46C7C7"/>
</svg>
